<svg xmlns="http://www.w3.org/2000/svg" xmlns:xlink="http://www.w3.org/1999/xlink" width="1200" height="1060" viewBox="0 0 1200 1060"><defs><marker id="arr" viewBox="0 0 10 10" refX="9" refY="5" markerWidth="7" markerHeight="7" orient="auto"><path d="M0 0L10 5L0 10" fill="#65564b"/></marker></defs><rect width="1200" height="1060" fill="white"/><style>text{font-family:"Times New Roman","Nimbus Roman",serif;font-weight:400;fill:#302b27}.arrow{fill:none;stroke:#65564b;stroke-width:2;marker-end:url(#arr)}</style><text x="600" y="45" font-size="32" text-anchor="middle">Adaptación de dominio · D2 y D3</text><rect x="55" y="80" width="1090" height="85" rx="5" fill="#f4ede6" stroke="#a38a77" stroke-width="1.5"/><text x="600.0" y="132.5" font-size="28" text-anchor="middle">Inicialización común: DINOv2 ViT-B/14 público</text><text x="300" y="220" font-size="32" text-anchor="middle">D2 · control</text><rect x="55" y="250" width="490" height="100" rx="5" fill="#f4ede6" stroke="#a38a77" stroke-width="1.5"/><text x="300.0" y="310.0" font-size="28" text-anchor="middle">Dominio fuente sin etiquetas</text><rect x="55" y="390" width="490" height="100" rx="5" fill="#f4ede6" stroke="#a38a77" stroke-width="1.5"/><text x="300.0" y="432.5" font-size="28" text-anchor="middle">Dos vistas → SimSiam</text><text x="300.0" y="467.5" font-size="28" text-anchor="middle">fθ + gθ + hθ</text><rect x="55" y="530" width="490" height="100" rx="5" fill="#f4ede6" stroke="#a38a77" stroke-width="1.5"/><text x="300.0" y="572.5" font-size="28" text-anchor="middle">Encoder adaptado y congelado</text><text x="300.0" y="607.5" font-size="28" text-anchor="middle">v = fθ(x)</text><rect x="55" y="670" width="490" height="100" rx="5" fill="#f4ede6" stroke="#a38a77" stroke-width="1.5"/><text x="300.0" y="712.5" font-size="28" text-anchor="middle">Escalador + regresión logística</text><text x="300.0" y="747.5" font-size="28" text-anchor="middle">Ajuste con HAM etiquetado</text><path d="M300 350 V390" class="arrow"/><path d="M300 490 V530" class="arrow"/><path d="M300 630 V670" class="arrow"/><text x="900" y="220" font-size="32" text-anchor="middle">D3 · adaptación</text><rect x="655" y="250" width="490" height="100" rx="5" fill="#f4ede6" stroke="#a38a77" stroke-width="1.5"/><text x="900.0" y="310.0" font-size="28" text-anchor="middle">Fuente + PAD · target_adapt</text><rect x="655" y="390" width="490" height="100" rx="5" fill="#f4ede6" stroke="#a38a77" stroke-width="1.5"/><text x="900.0" y="432.5" font-size="28" text-anchor="middle">Dos vistas → SimSiam</text><text x="900.0" y="467.5" font-size="28" text-anchor="middle">fθ + gθ + hθ</text><rect x="655" y="530" width="490" height="100" rx="5" fill="#f4ede6" stroke="#a38a77" stroke-width="1.5"/><text x="900.0" y="572.5" font-size="28" text-anchor="middle">Encoder adaptado y congelado</text><text x="900.0" y="607.5" font-size="28" text-anchor="middle">v = fθ(x)</text><rect x="655" y="670" width="490" height="100" rx="5" fill="#f4ede6" stroke="#a38a77" stroke-width="1.5"/><text x="900.0" y="712.5" font-size="28" text-anchor="middle">Escalador + regresión logística</text><text x="900.0" y="747.5" font-size="28" text-anchor="middle">Ajuste con HAM etiquetado</text><path d="M900 350 V390" class="arrow"/><path d="M900 490 V530" class="arrow"/><path d="M900 630 V670" class="arrow"/><text x="600" y="825" font-size="28" text-anchor="middle">ℒ = ½ D(p₁, sg(z₂)) + ½ D(p₂, sg(z₁))</text><rect x="55" y="865" width="1090" height="100" rx="5" fill="#f4ede6" stroke="#a38a77" stroke-width="1.5"/><text x="600.0" y="907.5" font-size="28" text-anchor="middle">Mismo target_test · separación por paciente</text><text x="600.0" y="942.5" font-size="28" text-anchor="middle">Macro-F1 · AUC-ROC · exactitud; sin realimentación</text><text x="600" y="1010" font-size="24" text-anchor="middle">Mismas particiones y protocolo; escalador y clasificador propios por condición.</text></svg>