<svg xmlns="http://www.w3.org/2000/svg" width="1000" height="1000" viewBox="0 0 1000 1000"><title>Protocolo experimental: datos, entrenamiento y prueba externa</title><defs><marker id="a" viewBox="0 0 10 10" refX="9" refY="5" markerWidth="6" markerHeight="6" orient="auto"><path d="M0 0L10 5L0 10" fill="#65564b" /></marker></defs><rect width="1000" height="1000.0" fill="white" /><style>text{font-family:"Times New Roman","Nimbus Roman",serif;fill:#302b27;font-weight:400}.e{fill:none;stroke:#65564b;stroke-width:1.7;marker-end:url(#a)}</style>
<text x="500" y="33.33333333333333" text-anchor="middle" font-size="25.641025641025642">Protocolo experimental</text>
<rect x="70" y="62.96296296296296" width="400" height="85.18518518518518" rx="4" stroke="#a38a77" stroke-width="1.2" fill="#f4eadf" />
<text x="270.0" y="99.22962962962963" text-anchor="middle" font-size="23.504273504273506">HAM10000</text>
<text x="270.0" y="125.15555555555555" text-anchor="middle" font-size="23.504273504273506">Entrenamiento + validación</text>
<rect x="530" y="62.96296296296296" width="400" height="85.18518518518518" rx="4" stroke="#a38a77" stroke-width="1.2" fill="#f4eadf" />
<text x="730.0" y="99.22962962962963" text-anchor="middle" font-size="23.504273504273506">PAD-UFES-20</text>
<text x="730.0" y="125.15555555555555" text-anchor="middle" font-size="23.504273504273506">Separación por paciente</text>
<path d="M730 148.14814814814815V174.07407407407408H650 V200.0" class="e" />
<path d="M730 174.07407407407408H870 V200.0" class="e" />
<rect x="540" y="200.0" width="220" height="70.37037037037037" rx="4" stroke="#a38a77" stroke-width="1.2" fill="#f4eadf" />
<text x="650.0" y="228.99259259259256" text-anchor="middle" font-size="23.504273504273506">target_adapt</text>
<text x="650.0" y="254.17777777777775" text-anchor="middle" font-size="23.504273504273506">Sin etiquetas</text>
<rect x="790" y="200.0" width="170" height="70.37037037037037" rx="4" stroke="#a38a77" stroke-width="1.2" fill="#faf8f5" />
<text x="875.0" y="229.25925925925924" text-anchor="middle" font-size="23.504273504273506">target_test</text>
<text x="875.0" y="252.96296296296296" text-anchor="middle" font-size="23.504273504273506">Reservado</text>
<path d="M270 148.14814814814815V322.22222222222223" class="e" />
<path d="M650 270.3703703703704V322.22222222222223" class="e" />
<rect x="145" y="322.22222222222223" width="250" height="85.18518518518518" rx="4" stroke="#a38a77" stroke-width="1.2" fill="#f4eadf" />
<text x="270.0" y="358.75555555555553" text-anchor="middle" font-size="23.504273504273506">D2 · fuente</text>
<text x="270.0" y="383.19999999999993" text-anchor="middle" font-size="23.504273504273506">SimSiam · pool fuente</text>
<rect x="525" y="322.22222222222223" width="250" height="85.18518518518518" rx="4" stroke="#a38a77" stroke-width="1.2" fill="#f4eadf" />
<text x="650.0" y="358.22222222222223" text-anchor="middle" font-size="23.504273504273506">D3 · destino</text>
<text x="650.0" y="385.6296296296296" text-anchor="middle" font-size="23.504273504273506">SimSiam</text>
<text x="500" y="977.7777777777777" text-anchor="middle" font-size="23.504273504273506">D2 y D3: misma inicialización DINOv2 pública</text>
<path d="M270 407.4074074074074V444.4444444444444H650 V407.4074074074074" fill="none" stroke="#65564b" stroke-width="2" />
<path d="M460 444.4444444444444V492.59259259259255" class="e" />
<rect x="170" y="492.59259259259255" width="580" height="100.0" rx="4" stroke="#a38a77" stroke-width="1.2" fill="#f4eadf" />
<text x="460.0" y="523.3037037037037" text-anchor="middle" font-size="23.504273504273506">Encoder congelado</text>
<text x="460.0" y="549.2296296296296" text-anchor="middle" font-size="23.504273504273506">Escalador + regresión logística</text>
<text x="460.0" y="575.1555555555556" text-anchor="middle" font-size="23.504273504273506">Ajuste independiente con HAM10000</text>
<path d="M70 105.18518518518518H35 V542.9629629629629H170" class="e" />
<rect x="790" y="322.22222222222223" width="170" height="85.18518518518518" rx="4" stroke="#a38a77" stroke-width="1.2" fill="#f4eadf" />
<text x="875.0" y="358.75555555555553" text-anchor="middle" font-size="23.504273504273506">Referencia</text>
<text x="875.0" y="383.19999999999993" text-anchor="middle" font-size="23.504273504273506">DINOv2</text>
<path d="M875 407.4074074074074V462.96296296296293H700 V492.59259259259255" class="e" />
<path d="M460 592.5925925925926V651.8518518518518" class="e" />
<rect x="170" y="651.8518518518518" width="580" height="85.18518518518518" rx="4" stroke="#a38a77" stroke-width="1.2" fill="#f4eadf" />
<text x="460.0" y="687.8518518518518" text-anchor="middle" font-size="23.504273504273506">Inferencia · pipeline congelado</text>
<text x="460.0" y="715.2592592592592" text-anchor="middle" font-size="23.504273504273506">Mismo target_test</text>
<path d="M960 234.8148148148148H985 V694.074074074074H750" class="e" />
<path d="M460 737.037037037037V796.2962962962963" class="e" />
<rect x="170" y="796.2962962962963" width="580" height="85.18518518518518" rx="4" stroke="#a38a77" stroke-width="1.2" fill="#f4eadf" />
<text x="460.0" y="832.4296296296295" text-anchor="middle" font-size="23.504273504273506">Comparación de las 3 condiciones</text>
<text x="460.0" y="859.0962962962963" text-anchor="middle" font-size="23.504273504273506">Macro-F1 · AUC-ROC · exactitud</text>
<text x="500" y="925.9259259259259" text-anchor="middle" font-size="23.504273504273506">Hiperparámetros: validación HAM · prueba sin reajuste</text>
<text x="500" y="949.6296296296296" text-anchor="middle" font-size="23.504273504273506">target_adapt y target_test: pacientes distintos</text>
</svg>